0
SECTION
2
HEADER
9
$INSUNITS
70
4
9
$ACADVER
1
AC1014
9
$HANDSEED
5
FFFF
0
ENDSEC
0
SECTION
2
TABLES
0
TABLE
2
VPORT
5
8
100
AcDbSymbolTable
0
ENDTAB
0
TABLE
2
LTYPE
5
5
100
AcDbSymbolTable
0
LTYPE
5
14
100
AcDbSymbolTableRecord
100
AcDbLinetypeTableRecord
2
BYBLOCK
70
0
0
LTYPE
5
15
100
AcDbSymbolTableRecord
100
AcDbLinetypeTableRecord
2
BYLAYER
70
0
0
ENDTAB
0
TABLE
2
LAYER
5
2
100
AcDbSymbolTable
70
2
0
LAYER
5
50
100
AcDbSymbolTableRecord
100
AcDbLayerTableRecord
2
0
70
0
6
CONTINUOUS
0
ENDTAB
0
TABLE
2
STYLE
5
3
100
AcDbSymbolTable
70
1
0
STYLE
5
11
100
AcDbSymbolTableRecord
100
AcDbTextStyleTableRecord
2
STANDARD
70
0
0
ENDTAB
0
TABLE
2
VIEW
5
6
100
AcDbSymbolTable
70
0
0
ENDTAB
0
TABLE
2
UCS
5
7
100
AcDbSymbolTable
70
0
0
ENDTAB
0
TABLE
2
APPID
5
9
100
AcDbSymbolTable
70
2
0
APPID
5
12
100
AcDbSymbolTableRecord
100
AcDbRegAppTableRecord
2
ACAD
70
0
0
ENDTAB
0
TABLE
2
DIMSTYLE
5
A
100
AcDbSymbolTable
70
1
0
ENDTAB
0
TABLE
2
BLOCK_RECORD
5
1
100
AcDbSymbolTable
70
1
0
BLOCK_RECORD
5
1F
100
AcDbSymbolTableRecord
100
AcDbBlockTableRecord
2
*MODEL_SPACE
0
BLOCK_RECORD
5
1B
100
AcDbSymbolTableRecord
100
AcDbBlockTableRecord
2
*PAPER_SPACE
0
ENDTAB
0
ENDSEC
0
SECTION
2
BLOCKS
0
BLOCK
5
20
100
AcDbEntity
100
AcDbBlockBegin
2
*MODEL_SPACE
0
ENDBLK
5
21
100
AcDbEntity
100
AcDbBlockEnd
0
BLOCK
5
1C
100
AcDbEntity
100
AcDbBlockBegin
2
*PAPER_SPACE
0
ENDBLK
5
1D
100
AcDbEntity
100
AcDbBlockEnd
0
ENDSEC
0
SECTION
2
ENTITIES
0
CIRCLE
5
100
100
AcDbEntity
8
0
100
AcDbCircle
10
10.606601717798213
20
11.893398282201781
30
0
40
2.1000000000000001
210
0
220
-0
230
1
0
CIRCLE
5
101
100
AcDbEntity
8
0
100
AcDbCircle
10
-10.60660171779822
20
33.106601717798213
30
0
40
2.1000000000000001
210
0
220
-0
230
1
0
CIRCLE
5
102
100
AcDbEntity
8
0
100
AcDbCircle
10
10.606601717798211
20
33.106601717798213
30
0
40
2.1000000000000001
210
0
220
-0
230
1
0
CIRCLE
5
103
100
AcDbEntity
8
0
100
AcDbCircle
10
-10.60660171779822
20
11.893398282201781
30
0
40
2.1000000000000001
210
0
220
-0
230
1
0
CIRCLE
5
104
100
AcDbEntity
8
0
100
AcDbCircle
10
13.869182898728631
20
44.250000670552254
30
0
40
1.6000000000000014
210
0
220
-0
230
1
0
CIRCLE
5
105
100
AcDbEntity
8
0
100
AcDbCircle
10
13.869182898728631
20
0.74999999999999956
30
0
40
1.6000000000000014
210
0
220
-0
230
1
0
CIRCLE
5
106
100
AcDbEntity
8
0
100
AcDbCircle
10
-13.869182898728631
20
44.250000670552254
30
0
40
1.6000000000000014
210
0
220
-0
230
1
0
CIRCLE
5
107
100
AcDbEntity
8
0
100
AcDbCircle
10
-13.869182898728631
20
0.74999999999999956
30
0
40
1.6000000000000014
210
0
220
-0
230
1
0
SPLINE
5
108
100
AcDbEntity
8
0
100
AcDbSpline
70
4
71
5
72
21
73
15
74
0
42
0.000000001
43
0.0000000001
44
0.0000000001
40
0
40
0
40
0
40
0
40
0
40
0
40
0.10000000000000001
40
0.20000000000000001
40
0.30000000000000004
40
0.40000000000000002
40
0.5
40
0.59999999999999998
40
0.69999999999999996
40
0.79999999999999993
40
0.89999999999999991
40
1
40
1
40
1
40
1
40
1
40
1
41
1
41
1
41
1
41
1
41
1
41
1
41
1
41
1
41
1
41
1
41
1
41
1
41
1
41
1
41
1
10
21.251276233383869
20
-2.0892915402703904
30
0
10
20.715115054929814
20
-1.0886452006322136
30
0
10
19.68825785814796
20
0.91220177291453686
30
0
10
18.284362809153748
20
3.9121351624564427
30
0
10
16.689812940784982
20
7.9093278109913632
30
0
10
15.190275371271614
20
12.900979256115587
30
0
10
14.228887429772453
20
17.887355093004594
30
0
10
13.850168822600011
20
22.868018884429048
30
0
10
14.079514067000197
20
27.842721681916835
30
0
10
14.894234887444872
20
32.811685903999646
30
0
10
16.250727404325936
20
37.775339009829246
30
0
10
17.734068602917038
20
41.742358363335271
30
0
10
19.056340796990124
20
44.715566489787577
30
0
10
20.029565779026889
20
46.696806184079392
30
0
10
20.53910642243245
20
47.687201261116556
30
0
0
ARC
5
109
100
AcDbEntity
8
0
100
AcDbCircle
10
-2.2204460492503131e-15
20
22.5
30
0
40
32.499999999999972
210
0
220
-0
230
1
100
AcDbArc
50
50.804199206221206
51
129.1958007937788
0
SPLINE
5
110
100
AcDbEntity
8
0
100
AcDbSpline
70
4
71
5
72
21
73
15
74
0
42
0.000000001
43
0.0000000001
44
0.0000000001
40
-1
40
-1
40
-1
40
-1
40
-1
40
-1
40
-0.89999999999999991
40
-0.79999999999999993
40
-0.69999999999999996
40
-0.59999999999999998
40
-0.5
40
-0.40000000000000002
40
-0.30000000000000004
40
-0.20000000000000001
40
-0.10000000000000001
40
0
40
0
40
0
40
0
40
0
40
0
41
1
41
1
41
1
41
1
41
1
41
1
41
1
41
1
41
1
41
1
41
1
41
1
41
1
41
1
41
1
10
-20.539106422432468
20
47.687201261116542
30
0
10
-20.029565779026903
20
46.696806184079385
30
0
10
-19.056340796990142
20
44.715566489787562
30
0
10
-17.734068602917052
20
41.742358363335264
30
0
10
-16.250727404325946
20
37.775339009829239
30
0
10
-14.894234887444881
20
32.811685903999638
30
0
10
-14.079514067000202
20
27.842721681916824
30
0
10
-13.850168822600013
20
22.868018884429038
30
0
10
-14.228887429772453
20
17.887355093004587
30
0
10
-15.190275371271611
20
12.90097925611558
30
0
10
-16.689812940784975
20
7.9093278109913534
30
0
10
-18.284362809153738
20
3.9121351624564316
30
0
10
-19.688257858147949
20
0.91220177291452476
30
0
10
-20.7151150549298
20
-1.0886452006322265
30
0
10
-21.251276233383859
20
-2.0892915402704033
30
0
0
ARC
5
111
100
AcDbEntity
8
0
100
AcDbCircle
10
-2.2204460492503131e-15
20
22.5
30
0
40
32.499999999999986
210
0
220
0
230
1
100
AcDbArc
50
229.16480927373411
51
310.83519072626598
0
ENDSEC
0
SECTION
2
OBJECTS
0
DICTIONARY
5
C
100
AcDbDictionary
3
ACAD_GROUP
350
D
3
ACAD_MLINESTYLE
350
17
0
DICTIONARY
5
D
100
AcDbDictionary
0
DICTIONARY
5
1A
330
C
100
AcDbDictionary
0
DICTIONARY
5
17
100
AcDbDictionary
0
ENDSEC
0
EOF
